<svg width="320" height="200" viewBox="0 0 320 200" xmlns="http://www.w3.org/2000/svg">
  <defs>
    <linearGradient id="re_navy" x1="0" y1="0" x2="1" y2="0">
      <stop offset="0%" stop-color="#1B3A6B"/>
      <stop offset="100%" stop-color="#234A88"/>
    </linearGradient>
    <linearGradient id="re_blue_btn" x1="0" y1="0" x2="1" y2="0">
      <stop offset="0%" stop-color="#2563EB"/>
      <stop offset="100%" stop-color="#3B7EFF"/>
    </linearGradient>
    <linearGradient id="re_photo1" x1="0" y1="0" x2="1" y2="1">
      <stop offset="0%" stop-color="#CBD8EC"/>
      <stop offset="100%" stop-color="#AABCD8"/>
    </linearGradient>
    <linearGradient id="re_photo2" x1="0" y1="0" x2="1" y2="1">
      <stop offset="0%" stop-color="#C4DCC8"/>
      <stop offset="100%" stop-color="#A4C4A8"/>
    </linearGradient>
    <linearGradient id="re_photo3" x1="0" y1="0" x2="1" y2="1">
      <stop offset="0%" stop-color="#E0D0BC"/>
      <stop offset="100%" stop-color="#C8B89C"/>
    </linearGradient>
  </defs>

  <rect width="320" height="200" fill="#F0F4FA"/>

  <!-- NAV -->
  <rect x="0" y="0" width="320" height="28" fill="#FFFFFF"/>
  <rect x="0" y="28" width="320" height="1" fill="#DDE4F0"/>

  <!-- Logo: house icon + wordmark -->
  <rect x="14" y="9" width="9" height="10" rx="1" fill="url(#re_navy)"/>
  <polygon points="14,13 18.5,8 23,13" fill="#FFFFFF" opacity="0.6"/>
  <rect x="17" y="16" width="3" height="3" fill="#FFFFFF" opacity="0.8"/>
  <text x="27" y="19" font-family="Georgia, 'Times New Roman', serif" font-size="10" fill="#1B3A6B" font-weight="700" letter-spacing="2">MERIDIAN</text>

  <!-- Nav -->
  <text x="148" y="18" font-family="Helvetica, Arial, sans-serif" font-size="6.5" fill="#666" letter-spacing="1">BUY</text>
  <text x="167" y="18" font-family="Helvetica, Arial, sans-serif" font-size="6.5" fill="#666" letter-spacing="1">SELL</text>
  <text x="186" y="18" font-family="Helvetica, Arial, sans-serif" font-size="6.5" fill="#666" letter-spacing="1">RENT</text>
  <text x="208" y="18" font-family="Helvetica, Arial, sans-serif" font-size="6.5" fill="#666" letter-spacing="1">AGENTS</text>
  <rect x="248" y="8" width="58" height="14" rx="7" fill="url(#re_blue_btn)"/>
  <text x="277" y="17" font-family="Helvetica, Arial, sans-serif" font-size="6.5" fill="#FFF" font-weight="700" text-anchor="middle">LIST WITH US</text>

  <!-- HERO SEARCH BAND -->
  <rect x="0" y="29" width="320" height="44" fill="url(#re_navy)"/>

  <!-- Small sky detail -->
  <circle cx="270" cy="42" r="18" fill="#FFFFFF" opacity="0.03"/>
  <circle cx="295" cy="38" r="10" fill="#FFFFFF" opacity="0.02"/>

  <text x="16" y="46" font-family="Helvetica, Arial, sans-serif" font-size="8.5" fill="#FFFFFF" font-weight="700" letter-spacing="-0.2">Find your next home.</text>

  <!-- Search bar -->
  <rect x="14" y="52" width="220" height="16" rx="8" fill="#FFFFFF"/>
  <circle cx="26" cy="60" r="4" fill="none" stroke="#AAA" stroke-width="1.2"/>
  <line x1="29" y1="62.5" x2="32" y2="65.5" stroke="#AAA" stroke-width="1.2"/>
  <text x="38" y="63.5" font-family="Helvetica, Arial, sans-serif" font-size="6.5" fill="#BBB">City, ZIP, or neighborhood...</text>

  <rect x="238" y="52" width="68" height="16" rx="8" fill="url(#re_blue_btn)"/>
  <text x="272" y="62" font-family="Helvetica, Arial, sans-serif" font-size="7" fill="#FFF" font-weight="700" text-anchor="middle">SEARCH</text>

  <!-- FILTER CHIPS -->
  <rect x="0" y="73" width="320" height="20" fill="#FFFFFF"/>
  <rect x="0" y="93" width="320" height="1" fill="#DDE4F0"/>

  <rect x="14" y="78" width="44" height="10" rx="5" fill="#EEF2FF"/>
  <text x="36" y="85" font-family="Helvetica, Arial, sans-serif" font-size="5.5" fill="#2563EB" text-anchor="middle" font-weight="700">For Sale</text>

  <rect x="62" y="78" width="38" height="10" rx="5" fill="#F5F5F5"/>
  <text x="81" y="85" font-family="Helvetica, Arial, sans-serif" font-size="5.5" fill="#555" text-anchor="middle">Any Price</text>

  <rect x="104" y="78" width="38" height="10" rx="5" fill="#F5F5F5"/>
  <text x="123" y="85" font-family="Helvetica, Arial, sans-serif" font-size="5.5" fill="#555" text-anchor="middle">Beds: Any</text>

  <rect x="146" y="78" width="38" height="10" rx="5" fill="#F5F5F5"/>
  <text x="165" y="85" font-family="Helvetica, Arial, sans-serif" font-size="5.5" fill="#555" text-anchor="middle">More ▾</text>

  <text x="250" y="85" font-family="Helvetica, Arial, sans-serif" font-size="5.5" fill="#2563EB">🗺 Map View</text>
  <text x="296" y="85" font-family="Helvetica, Arial, sans-serif" font-size="5.5" fill="#AAA">1,847 homes</text>

  <!-- LISTING CARDS -->
  <rect x="0" y="94" width="320" height="106" fill="#F0F4FA"/>

  <!-- Card 1 -->
  <rect x="12" y="98" width="92" height="96" rx="6" fill="#FFFFFF"/>
  <rect x="12" y="98" width="92" height="96" rx="6" fill="none" stroke="#DDE4F0" stroke-width="1"/>
  <!-- Photo area -->
  <rect x="12" y="98" width="92" height="54" rx="6" fill="url(#re_photo1)"/>
  <rect x="12" y="138" width="92" height="14" fill="url(#re_photo1)"/>
  <!-- House illustration -->
  <rect x="36" y="116" width="44" height="28" rx="1" fill="#FFFFFF" opacity="0.25"/>
  <polygon points="36,116 58,104 80,116" fill="#FFFFFF" opacity="0.35"/>
  <rect x="50" y="127" width="10" height="14" rx="1" fill="#1B3A6B" opacity="0.25"/>
  <rect x="37" y="120" width="9" height="9" rx="1" fill="#FFFFFF" opacity="0.45"/>
  <rect x="70" y="120" width="9" height="9" rx="1" fill="#FFFFFF" opacity="0.45"/>
  <!-- For sale badge -->
  <rect x="16" y="102" width="30" height="9" rx="4.5" fill="#2563EB"/>
  <text x="31" y="109" font-family="Helvetica, Arial, sans-serif" font-size="5" fill="#FFF" font-weight="700" text-anchor="middle">FOR SALE</text>
  <!-- Heart save -->
  <circle cx="95" cy="106" r="7" fill="#FFFFFF"/>
  <text x="95" y="109" font-family="Helvetica, Arial, sans-serif" font-size="8" fill="#DDD" text-anchor="middle">♡</text>
  <!-- Property info -->
  <text x="18" y="164" font-family="Helvetica, Arial, sans-serif" font-size="9" fill="#1B3A6B" font-weight="900">$549K</text>
  <text x="18" y="174" font-family="Helvetica, Arial, sans-serif" font-size="5.5" fill="#555">4 bd · 2 ba · 2,100 ft²</text>
  <text x="18" y="183" font-family="Helvetica, Arial, sans-serif" font-size="5.5" fill="#999">Scottsdale, AZ</text>
  <rect x="17" y="186" width="28" height="7" rx="3.5" fill="#EEF2FF"/>
  <text x="31" y="191" font-family="Helvetica, Arial, sans-serif" font-size="4.5" fill="#2563EB" text-anchor="middle">★ 4.9</text>

  <!-- Card 2 -->
  <rect x="110" y="98" width="92" height="96" rx="6" fill="#FFFFFF"/>
  <rect x="110" y="98" width="92" height="96" rx="6" fill="none" stroke="#DDE4F0" stroke-width="1"/>
  <rect x="110" y="98" width="92" height="54" rx="6" fill="url(#re_photo2)"/>
  <rect x="110" y="138" width="92" height="14" fill="url(#re_photo2)"/>
  <rect x="134" y="116" width="44" height="28" rx="1" fill="#FFFFFF" opacity="0.25"/>
  <polygon points="134,116 156,104 178,116" fill="#FFFFFF" opacity="0.35"/>
  <rect x="148" y="127" width="10" height="14" rx="1" fill="#1B3A6B" opacity="0.25"/>
  <rect x="135" y="120" width="9" height="9" rx="1" fill="#FFFFFF" opacity="0.45"/>
  <rect x="168" y="120" width="9" height="9" rx="1" fill="#FFFFFF" opacity="0.45"/>
  <!-- New badge -->
  <rect x="114" y="102" width="24" height="9" rx="4.5" fill="#16A34A"/>
  <text x="126" y="109" font-family="Helvetica, Arial, sans-serif" font-size="5" fill="#FFF" font-weight="700" text-anchor="middle">NEW</text>
  <circle cx="193" cy="106" r="7" fill="#FFFFFF"/>
  <text x="193" y="109" font-family="Helvetica, Arial, sans-serif" font-size="8" fill="#DDD" text-anchor="middle">♡</text>
  <text x="116" y="164" font-family="Helvetica, Arial, sans-serif" font-size="9" fill="#1B3A6B" font-weight="900">$382K</text>
  <text x="116" y="174" font-family="Helvetica, Arial, sans-serif" font-size="5.5" fill="#555">3 bd · 2 ba · 1,540 ft²</text>
  <text x="116" y="183" font-family="Helvetica, Arial, sans-serif" font-size="5.5" fill="#999">Tempe, AZ</text>
  <rect x="115" y="186" width="28" height="7" rx="3.5" fill="#F0FDF4"/>
  <text x="129" y="191" font-family="Helvetica, Arial, sans-serif" font-size="4.5" fill="#16A34A" text-anchor="middle">★ 4.7</text>

  <!-- Card 3 -->
  <rect x="208" y="98" width="100" height="96" rx="6" fill="#FFFFFF"/>
  <rect x="208" y="98" width="100" height="96" rx="6" fill="none" stroke="#DDE4F0" stroke-width="1.5"/>
  <rect x="208" y="98" width="100" height="54" rx="6" fill="url(#re_photo3)"/>
  <rect x="208" y="138" width="100" height="14" fill="url(#re_photo3)"/>
  <rect x="232" y="116" width="52" height="28" rx="1" fill="#FFFFFF" opacity="0.25"/>
  <polygon points="232,116 258,102 284,116" fill="#FFFFFF" opacity="0.35"/>
  <rect x="250" y="128" width="12" height="14" rx="1" fill="#1B3A6B" opacity="0.25"/>
  <rect x="234" y="120" width="10" height="10" rx="1" fill="#FFFFFF" opacity="0.45"/>
  <rect x="272" y="120" width="10" height="10" rx="1" fill="#FFFFFF" opacity="0.45"/>
  <!-- Luxury badge -->
  <rect x="212" y="102" width="32" height="9" rx="4.5" fill="#B45309"/>
  <text x="228" y="109" font-family="Helvetica, Arial, sans-serif" font-size="5" fill="#FFF" font-weight="700" text-anchor="middle">LUXURY</text>
  <circle cx="299" cy="106" r="7" fill="#FFFFFF"/>
  <text x="299" y="109" font-family="Helvetica, Arial, sans-serif" font-size="8" fill="#E8A040" text-anchor="middle">♥</text>
  <text x="214" y="164" font-family="Helvetica, Arial, sans-serif" font-size="9" fill="#1B3A6B" font-weight="900">$1.2M</text>
  <text x="214" y="174" font-family="Helvetica, Arial, sans-serif" font-size="5.5" fill="#555">5 bd · 4 ba · 4,200 ft²</text>
  <text x="214" y="183" font-family="Helvetica, Arial, sans-serif" font-size="5.5" fill="#999">Paradise Valley, AZ</text>
  <rect x="213" y="186" width="36" height="7" rx="3.5" fill="#FEF3C7"/>
  <text x="231" y="191" font-family="Helvetica, Arial, sans-serif" font-size="4.5" fill="#B45309" text-anchor="middle">★ 5.0 LUXURY</text>
</svg>
