<svg width="320" height="200" viewBox="0 0 320 200" xmlns="http://www.w3.org/2000/svg">
  <rect width="320" height="200" fill="#FF5722"/>
  <polygon points="180,0 320,0 320,200 100,200" fill="#1A1A1A"/>
  <line x1="100" y1="200" x2="200" y2="0"   stroke="#FF7A4A" stroke-width="0.8" opacity="0.3"/>
  <line x1="120" y1="200" x2="220" y2="0"   stroke="#FF7A4A" stroke-width="0.8" opacity="0.25"/>
  <line x1="140" y1="200" x2="240" y2="0"   stroke="#FF7A4A" stroke-width="0.8" opacity="0.2"/>
  <rect x="0" y="0" width="320" height="26" fill="rgba(0,0,0,0.3)"/>
  <text x="16" y="17" font-family="Arial" font-size="12" fill="#FFFFFF" font-weight="900" letter-spacing="3">APEX</text>
  <rect x="255" y="6" width="50" height="14" rx="2" fill="#FFFFFF"/>
  <text x="280" y="16" font-family="Arial" font-size="6.5" fill="#FF5722" font-weight="900" text-anchor="middle" letter-spacing="1">JOIN NOW</text>
  <text x="185" y="16" font-family="Arial" font-size="6.5" fill="#FFFFFF" opacity="0.8" letter-spacing="1">PROGRAMS</text>
  <text x="228" y="16" font-family="Arial" font-size="6.5" fill="#FFFFFF" opacity="0.8" letter-spacing="1">COACHES</text>
  <text x="16" y="68"  font-family="Arial" font-size="22" fill="#FFFFFF" font-weight="900">PUSH</text>
  <text x="16" y="92"  font-family="Arial" font-size="22" fill="#FFFFFF" font-weight="900">YOUR</text>
  <text x="16" y="116" font-family="Arial" font-size="22" fill="#FFFFFF" font-weight="900">LIMIT.</text>
  <rect x="16" y="126" width="90" height="18" rx="3" fill="#FFFFFF"/>
  <text x="61" y="138" font-family="Arial" font-size="7.5" fill="#FF5722" font-weight="900" text-anchor="middle" letter-spacing="1">START FREE TRIAL</text>
  <text x="215" y="80"  font-family="Arial" font-size="24" fill="#FFFFFF" font-weight="900" text-anchor="middle">50+</text>
  <text x="215" y="92"  font-family="Arial" font-size="6"  fill="#FFFFFF" opacity="0.7" text-anchor="middle" letter-spacing="1">CLASSES WEEKLY</text>
  <line x1="190" y1="100" x2="240" y2="100" stroke="#FFFFFF" stroke-width="0.5" opacity="0.3"/>
  <text x="215" y="116" font-family="Arial" font-size="24" fill="#FFFFFF" font-weight="900" text-anchor="middle">5K+</text>
  <text x="215" y="128" font-family="Arial" font-size="6"  fill="#FFFFFF" opacity="0.7" text-anchor="middle" letter-spacing="1">ACTIVE MEMBERS</text>
  <line x1="190" y1="136" x2="240" y2="136" stroke="#FFFFFF" stroke-width="0.5" opacity="0.3"/>
  <text x="215" y="152" font-family="Arial" font-size="24" fill="#FFFFFF" font-weight="900" text-anchor="middle">12</text>
  <text x="215" y="164" font-family="Arial" font-size="6"  fill="#FFFFFF" opacity="0.7" text-anchor="middle" letter-spacing="1">LOCATIONS</text>
  <rect x="0" y="170" width="320" height="30" fill="rgba(0,0,0,0.4)"/>
  <text x="16" y="189" font-family="Arial" font-size="7" fill="#FF7A4A" letter-spacing="3">TRAIN HARD. RECOVER SMART. REPEAT.</text>
</svg>
