<svg width="320" height="200" viewBox="0 0 320 200" xmlns="http://www.w3.org/2000/svg">
  <rect width="320" height="200" fill="#FFF8F0"/>
  <rect x="180" y="26" width="140" height="174" fill="#FF6B35" opacity="0.08"/>
  <rect x="0" y="0" width="320" height="26" fill="#FF6B35"/>
  <text x="16" y="17" font-family="Georgia, serif" font-size="11" fill="#FFFFFF" font-weight="700" letter-spacing="3" font-style="italic">ZEST</text>
  <text x="170" y="16" font-family="Arial" font-size="6.5" fill="#FFFFFF" opacity="0.9" letter-spacing="1.5">MENU</text>
  <text x="200" y="16" font-family="Arial" font-size="6.5" fill="#FFFFFF" opacity="0.9" letter-spacing="1.5">STORY</text>
  <text x="234" y="16" font-family="Arial" font-size="6.5" fill="#FFFFFF" opacity="0.9" letter-spacing="1.5">CATERING</text>
  <rect x="275" y="6" width="34" height="14" rx="7" fill="#FFFFFF"/>
  <text x="292" y="16" font-family="Arial" font-size="6" fill="#FF6B35" font-weight="700" text-anchor="middle">RESERVE</text>
  <text x="16" y="46" font-family="Arial" font-size="6" fill="#FF6B35" letter-spacing="4" font-weight="700">FARM TO TABLE</text>
  <text x="16" y="66" font-family="Georgia, serif" font-size="20" fill="#1A0E08" font-weight="700">Fresh. Bold.</text>
  <text x="16" y="88" font-family="Georgia, serif" font-size="20" fill="#FF6B35" font-weight="700">Unforgettable.</text>
  <text x="16" y="104" font-family="Arial" font-size="6.5" fill="#9C8B78">Seasonal ingredients. Inspired flavors.</text>
  <text x="16" y="115" font-family="Arial" font-size="6.5" fill="#9C8B78">Every plate tells a story.</text>
  <rect x="16" y="124" width="80" height="17" rx="3" fill="#FF6B35"/>
  <text x="56" y="135" font-family="Arial" font-size="7" fill="#FFFFFF" font-weight="700" text-anchor="middle" letter-spacing="0.5">VIEW MENU</text>
  <rect x="102" y="124" width="62" height="17" rx="3" fill="none" stroke="#FF6B35" stroke-width="1.2"/>
  <text x="133" y="135" font-family="Arial" font-size="7" fill="#FF6B35" font-weight="700" text-anchor="middle" letter-spacing="0.5">BOOK TABLE</text>
  <circle cx="242" cy="95" r="48" fill="#FFFFFF"/>
  <circle cx="242" cy="95" r="48" fill="none" stroke="#F0E0D0" stroke-width="1.5"/>
  <circle cx="242" cy="95" r="38" fill="#FFF5EE"/>
  <ellipse cx="242" cy="92" rx="22" ry="18" fill="#E8A020" opacity="0.85"/>
  <ellipse cx="234" cy="88" rx="10" ry="8"  fill="#C4621A" opacity="0.8"/>
  <ellipse cx="252" cy="96" rx="8"  ry="7"  fill="#D4521A" opacity="0.75"/>
  <ellipse cx="242" cy="82" rx="7"  ry="5"  fill="#4A8A3A" opacity="0.8"/>
  <ellipse cx="230" cy="98" rx="5"  ry="4"  fill="#4A8A3A" opacity="0.7"/>
  <ellipse cx="255" cy="86" rx="5"  ry="4"  fill="#E8C040" opacity="0.8"/>
  <path d="M248 85 Q255 90 252 100" fill="none" stroke="#E8A020" stroke-width="1.5" opacity="0.7"/>
  <path d="M232 100 Q225 108 228 118" fill="none" stroke="#C9973A" stroke-width="1" opacity="0.6"/>
  <circle cx="228" cy="104" r="2" fill="#4A8A3A" opacity="0.7"/>
  <circle cx="258" cy="80"  r="1.5" fill="#E8C040" opacity="0.8"/>
  <circle cx="262" cy="100" r="1.5" fill="#4A8A3A" opacity="0.7"/>
  <rect x="0" y="160" width="320" height="40" fill="#FFFFFF"/>
  <line x1="0" y1="160" x2="320" y2="160" stroke="#F0E0D0" stroke-width="1"/>
  <text x="16" y="173" font-family="Arial" font-size="6" fill="#FF6B35" letter-spacing="2" font-weight="700">TODAY'S SPECIALS</text>
  <rect x="16"  y="178" width="68" height="16" rx="4" fill="#FFF0E8"/>
  <text x="50"  y="188" font-family="Arial" font-size="6.5" fill="#1A0E08" text-anchor="middle" font-weight="700">Truffle Risotto</text>
  <rect x="92"  y="178" width="68" height="16" rx="4" fill="#FFF0E8"/>
  <text x="126" y="188" font-family="Arial" font-size="6.5" fill="#1A0E08" text-anchor="middle" font-weight="700">Pan-Seared Salmon</text>
  <rect x="168" y="178" width="68" height="16" rx="4" fill="#FFF0E8"/>
  <text x="202" y="188" font-family="Arial" font-size="6.5" fill="#1A0E08" text-anchor="middle" font-weight="700">Lemon Tart</text>
  <rect x="244" y="178" width="60" height="16" rx="4" fill="#FF6B35"/>
  <text x="274" y="188" font-family="Arial" font-size="6.5" fill="#FFFFFF" text-anchor="middle" font-weight="700">Full Menu</text>
</svg>
