<svg width="320" height="200" viewBox="0 0 320 200" xmlns="http://www.w3.org/2000/svg">
  <rect width="320" height="200" fill="#F8F5FF"/>
  <rect x="0" y="0" width="52" height="200" fill="#5B2D9E"/>
  <rect x="14" y="16"  width="24" height="8"  rx="2" fill="#FFFFFF" opacity="0.15"/>
  <text x="26" y="22" font-family="Arial" font-size="7" fill="#FFFFFF" font-weight="700" text-anchor="middle">SQ</text>
  <rect x="14" y="40"  width="24" height="24" rx="4" fill="#7B4DBE" opacity="0.6"/>
  <rect x="20" y="46"  width="12" height="2"  rx="1" fill="#FFFFFF" opacity="0.9"/>
  <rect x="20" y="50"  width="8"  height="2"  rx="1" fill="#FFFFFF" opacity="0.7"/>
  <rect x="20" y="54"  width="10" height="2"  rx="1" fill="#FFFFFF" opacity="0.7"/>
  <rect x="14" y="72"  width="24" height="24" rx="4" fill="#FFFFFF" opacity="0.1"/>
  <circle cx="26" cy="84" r="7" fill="none" stroke="#FFFFFF" stroke-width="1.5" opacity="0.7"/>
  <line x1="26" y1="78" x2="26" y2="80" stroke="#FFFFFF" stroke-width="1.5" opacity="0.7"/>
  <rect x="14" y="104" width="24" height="24" rx="4" fill="#FFFFFF" opacity="0.1"/>
  <rect x="19" y="110" width="14" height="12" rx="2" fill="none" stroke="#FFFFFF" stroke-width="1.2" opacity="0.7"/>
  <line x1="22" y1="114" x2="29" y2="114" stroke="#FFFFFF" stroke-width="1" opacity="0.7"/>
  <line x1="22" y1="117" x2="27" y2="117" stroke="#FFFFFF" stroke-width="1" opacity="0.7"/>
  <rect x="14" y="136" width="24" height="24" rx="4" fill="#FFFFFF" opacity="0.1"/>
  <circle cx="26" cy="148" r="5" fill="none" stroke="#FFFFFF" stroke-width="1.2" opacity="0.7"/>
  <rect x="52" y="0" width="268" height="28" fill="#FFFFFF"/>
  <line x1="52" y1="28" x2="320" y2="28" stroke="#EEE8FF" stroke-width="1"/>
  <text x="62" y="17" font-family="Arial" font-size="8" fill="#5B2D9E" font-weight="700">Dashboard</text>
  <rect x="200" y="7" width="90" height="14" rx="7" fill="#F0EBFF"/>
  <circle cx="212" cy="14" r="4" fill="none" stroke="#AAA" stroke-width="1"/>
  <line x1="215" y1="17" x2="218" y2="20" stroke="#AAA" stroke-width="1"/>
  <text x="222" y="18" font-family="Arial" font-size="6" fill="#AAA">Search...</text>
  <circle cx="298" cy="14" r="6" fill="#5B2D9E" opacity="0.2"/>
  <text x="298" y="17" font-family="Arial" font-size="6" fill="#5B2D9E" font-weight="700" text-anchor="middle">JD</text>
  <rect x="60"  y="36" width="58" height="38" rx="6" fill="#FFFFFF"/>
  <rect x="60"  y="36" width="58" height="38" rx="6" fill="none" stroke="#EEE8FF" stroke-width="1"/>
  <text x="66"  y="48" font-family="Arial" font-size="6" fill="#999" letter-spacing="0.5">REVENUE</text>
  <text x="66"  y="62" font-family="Arial" font-size="12" fill="#5B2D9E" font-weight="900">$84.2K</text>
  <text x="66"  y="70" font-family="Arial" font-size="5.5" fill="#22AA66">▲ 12.4%</text>
  <rect x="124" y="36" width="58" height="38" rx="6" fill="#5B2D9E"/>
  <text x="130" y="48" font-family="Arial" font-size="6" fill="#C8A8FF" letter-spacing="0.5">USERS</text>
  <text x="130" y="62" font-family="Arial" font-size="12" fill="#FFFFFF" font-weight="900">2,841</text>
  <text x="130" y="70" font-family="Arial" font-size="5.5" fill="#C8A8FF">▲ 8.1%</text>
  <rect x="188" y="36" width="58" height="38" rx="6" fill="#FFFFFF"/>
  <rect x="188" y="36" width="58" height="38" rx="6" fill="none" stroke="#EEE8FF" stroke-width="1"/>
  <text x="194" y="48" font-family="Arial" font-size="6" fill="#999" letter-spacing="0.5">CONVERSION</text>
  <text x="194" y="62" font-family="Arial" font-size="12" fill="#5B2D9E" font-weight="900">3.6%</text>
  <text x="194" y="70" font-family="Arial" font-size="5.5" fill="#FF5533">▼ 0.3%</text>
  <rect x="252" y="36" width="58" height="38" rx="6" fill="#FFFFFF"/>
  <rect x="252" y="36" width="58" height="38" rx="6" fill="none" stroke="#EEE8FF" stroke-width="1"/>
  <text x="258" y="48" font-family="Arial" font-size="6" fill="#999" letter-spacing="0.5">CHURN</text>
  <text x="258" y="62" font-family="Arial" font-size="12" fill="#5B2D9E" font-weight="900">1.2%</text>
  <text x="258" y="70" font-family="Arial" font-size="5.5" fill="#22AA66">▲ 0.2%</text>
  <rect x="60" y="82" width="160" height="80" rx="6" fill="#FFFFFF"/>
  <rect x="60" y="82" width="160" height="80" rx="6" fill="none" stroke="#EEE8FF" stroke-width="1"/>
  <text x="68" y="94" font-family="Arial" font-size="6.5" fill="#333" font-weight="700">Revenue Overview</text>
  <text x="188" y="94" font-family="Arial" font-size="5.5" fill="#5B2D9E">Monthly ▾</text>
  <rect x="72"  y="138" width="10" height="18" rx="2" fill="#EEE8FF"/>
  <rect x="86"  y="130" width="10" height="26" rx="2" fill="#EEE8FF"/>
  <rect x="100" y="122" width="10" height="34" rx="2" fill="#5B2D9E" opacity="0.4"/>
  <rect x="114" y="118" width="10" height="38" rx="2" fill="#5B2D9E" opacity="0.6"/>
  <rect x="128" y="110" width="10" height="46" rx="2" fill="#5B2D9E" opacity="0.8"/>
  <rect x="142" y="104" width="10" height="52" rx="2" fill="#5B2D9E"/>
  <rect x="156" y="108" width="10" height="48" rx="2" fill="#5B2D9E" opacity="0.7"/>
  <rect x="170" y="112" width="10" height="44" rx="2" fill="#5B2D9E" opacity="0.5"/>
  <rect x="184" y="120" width="10" height="36" rx="2" fill="#5B2D9E" opacity="0.3"/>
  <rect x="228" y="82" width="82" height="80" rx="6" fill="#FFFFFF"/>
  <rect x="228" y="82" width="82" height="80" rx="6" fill="none" stroke="#EEE8FF" stroke-width="1"/>
  <text x="236" y="94" font-family="Arial" font-size="6.5" fill="#333" font-weight="700">Top Channels</text>
  <rect x="236" y="100" width="40" height="5" rx="2" fill="#5B2D9E" opacity="0.9"/>
  <text x="280" y="105" font-family="Arial" font-size="5.5" fill="#666">Organic</text>
  <rect x="236" y="110" width="28" height="5" rx="2" fill="#5B2D9E" opacity="0.5"/>
  <text x="268" y="115" font-family="Arial" font-size="5.5" fill="#666">Paid</text>
  <rect x="236" y="120" width="18" height="5" rx="2" fill="#5B2D9E" opacity="0.25"/>
  <text x="258" y="125" font-family="Arial" font-size="5.5" fill="#666">Direct</text>
  <rect x="236" y="130" width="32" height="5" rx="2" fill="#5B2D9E" opacity="0.7"/>
  <text x="272" y="135" font-family="Arial" font-size="5.5" fill="#666">Social</text>
  <rect x="236" y="140" width="14" height="5" rx="2" fill="#5B2D9E" opacity="0.2"/>
  <text x="254" y="145" font-family="Arial" font-size="5.5" fill="#666">Email</text>
  <rect x="52" y="170" width="268" height="30" fill="#FFFFFF"/>
  <line x1="52" y1="170" x2="320" y2="170" stroke="#EEE8FF" stroke-width="1"/>
  <text x="62" y="182" font-family="Arial" font-size="6" fill="#999" letter-spacing="0.5">RECENT ACTIVITY</text>
  <rect x="62"  y="185" width="55" height="8" rx="2" fill="#F0EBFF"/>
  <rect x="122" y="185" width="70" height="8" rx="2" fill="#F0EBFF"/>
  <rect x="198" y="185" width="45" height="8" rx="2" fill="#F0EBFF"/>
  <rect x="248" y="185" width="60" height="8" rx="2" fill="#F0EBFF"/>
</svg>
