<svg width="320" height="200" viewBox="0 0 320 200" xmlns="http://www.w3.org/2000/svg">
  <rect width="320" height="200" fill="#F0F4FF"/>
  <rect x="0" y="0" width="320" height="26" fill="#FFFFFF"/>
  <line x1="0" y1="26" x2="320" y2="26" stroke="#DDE3F0" stroke-width="1"/>
  <text x="16" y="17" font-family="Arial" font-size="10" fill="#1A2A5A" font-weight="900" letter-spacing="2">HAVEN</text>
  <rect x="255" y="6" width="50" height="14" rx="7" fill="#2D4EFF"/>
  <text x="280" y="16" font-family="Arial" font-size="6.5" fill="#FFFFFF" font-weight="700" text-anchor="middle" letter-spacing="0.5">LIST WITH US</text>
  <text x="170" y="16" font-family="Arial" font-size="6.5" fill="#666" letter-spacing="1">BUY</text>
  <text x="193" y="16" font-family="Arial" font-size="6.5" fill="#666" letter-spacing="1">SELL</text>
  <text x="218" y="16" font-family="Arial" font-size="6.5" fill="#666" letter-spacing="1">RENT</text>
  <rect x="16" y="38" width="200" height="20" rx="10" fill="#FFFFFF"/>
  <rect x="16" y="38" width="200" height="20" rx="10" fill="none" stroke="#DDE3F0" stroke-width="1"/>
  <circle cx="30" cy="48" r="4" fill="none" stroke="#999" stroke-width="1.2"/>
  <line x1="33" y1="51" x2="36" y2="54" stroke="#999" stroke-width="1.2"/>
  <text x="44" y="51" font-family="Arial" font-size="6.5" fill="#AAA">Search by city, zip, or address...</text>
  <rect x="220" y="38" width="55" height="20" rx="10" fill="#2D4EFF"/>
  <text x="247" y="51" font-family="Arial" font-size="7" fill="#FFFFFF" font-weight="700" text-anchor="middle">SEARCH</text>
  <rect x="16"  y="68" width="88" height="98" rx="8" fill="#FFFFFF"/>
  <rect x="16"  y="68" width="88" height="98" rx="8" fill="none" stroke="#DDE3F0" stroke-width="1"/>
  <rect x="16"  y="68" width="88" height="52" rx="8" fill="#C8D8F0"/>
  <rect x="16"  y="104" width="88" height="16" fill="#C8D8F0"/>
  <polygon points="60,78 42,95 78,95" fill="#2D4EFF" opacity="0.4"/>
  <rect x="46" y="95" width="28" height="18" fill="#2D4EFF" opacity="0.3"/>
  <rect x="55" y="100" width="10" height="13" fill="#2D4EFF" opacity="0.5"/>
  <text x="20" y="134" font-family="Arial" font-size="8" fill="#1A2A5A" font-weight="700">$485,000</text>
  <text x="20" y="144" font-family="Arial" font-size="5.5" fill="#999">3 bd · 2 ba · 1,840 sqft</text>
  <text x="20" y="154" font-family="Arial" font-size="5.5" fill="#666">Oak Park, Chicago</text>
  <rect x="20"  y="158" width="30" height="6" rx="3" fill="#E8F0FF"/>
  <text x="35"  y="163" font-family="Arial" font-size="4.5" fill="#2D4EFF" text-anchor="middle">FOR SALE</text>
  <rect x="116" y="68" width="88" height="98" rx="8" fill="#FFFFFF"/>
  <rect x="116" y="68" width="88" height="98" rx="8" fill="none" stroke="#DDE3F0" stroke-width="1"/>
  <rect x="116" y="68" width="88" height="52" rx="8" fill="#D8EAD0"/>
  <rect x="116" y="104" width="88" height="16" fill="#D8EAD0"/>
  <polygon points="160,78 142,95 178,95" fill="#2A8A4A" opacity="0.4"/>
  <rect x="146" y="95" width="28" height="18" fill="#2A8A4A" opacity="0.3"/>
  <rect x="155" y="100" width="10" height="13" fill="#2A8A4A" opacity="0.5"/>
  <text x="120" y="134" font-family="Arial" font-size="8" fill="#1A2A5A" font-weight="700">$312,000</text>
  <text x="120" y="144" font-family="Arial" font-size="5.5" fill="#999">2 bd · 1 ba · 1,120 sqft</text>
  <text x="120" y="154" font-family="Arial" font-size="5.5" fill="#666">Evanston, IL</text>
  <rect x="120" y="158" width="30" height="6" rx="3" fill="#E8F5E8"/>
  <text x="135" y="163" font-family="Arial" font-size="4.5" fill="#2A8A4A" text-anchor="middle">FOR RENT</text>
  <rect x="216" y="68" width="88" height="98" rx="8" fill="#FFFFFF"/>
  <rect x="216" y="68" width="88" height="98" rx="8" fill="none" stroke="#DDE3F0" stroke-width="1"/>
  <rect x="216" y="68" width="88" height="52" rx="8" fill="#F0E8D8"/>
  <rect x="216" y="104" width="88" height="16" fill="#F0E8D8"/>
  <polygon points="260,78 242,95 278,95" fill="#C9973A" opacity="0.4"/>
  <rect x="246" y="95" width="28" height="18" fill="#C9973A" opacity="0.3"/>
  <rect x="255" y="100" width="10" height="13" fill="#C9973A" opacity="0.5"/>
  <text x="220" y="134" font-family="Arial" font-size="8" fill="#1A2A5A" font-weight="700">$729,000</text>
  <text x="220" y="144" font-family="Arial" font-size="5.5" fill="#999">4 bd · 3 ba · 2,650 sqft</text>
  <text x="220" y="154" font-family="Arial" font-size="5.5" fill="#666">Lincoln Park, IL</text>
  <rect x="220" y="158" width="36" height="6" rx="3" fill="#FFF5E8"/>
  <text x="238" y="163" font-family="Arial" font-size="4.5" fill="#C9973A" text-anchor="middle">JUST LISTED</text>
  <rect x="0" y="170" width="320" height="30" fill="#E8EEF8"/>
  <line x1="0" y1="170" x2="320" y2="170" stroke="#DDE3F0" stroke-width="1"/>
  <text x="16" y="183" font-family="Arial" font-size="6" fill="#2D4EFF" letter-spacing="1">BROWSE BY MAP</text>
  <text x="16" y="194" font-family="Arial" font-size="5.5" fill="#999">1,240 active listings in your area</text>
</svg>
