<svg width="320" height="200" viewBox="0 0 320 200" xmlns="http://www.w3.org/2000/svg">
  <defs>
    <linearGradient id="s_indigo" x1="0" y1="0" x2="1" y2="0">
      <stop offset="0%" stop-color="#4F46E5"/>
      <stop offset="100%" stop-color="#6366F1"/>
    </linearGradient>
    <linearGradient id="s_sidebar" x1="0" y1="0" x2="1" y2="0">
      <stop offset="0%" stop-color="#312E81"/>
      <stop offset="100%" stop-color="#3730A3"/>
    </linearGradient>
    <linearGradient id="s_bar_hi" x1="0" y1="0" x2="0" y2="1">
      <stop offset="0%" stop-color="#4F46E5"/>
      <stop offset="100%" stop-color="#6366F1"/>
    </linearGradient>
    <linearGradient id="s_bar_lo" x1="0" y1="0" x2="0" y2="1">
      <stop offset="0%" stop-color="#A5B4FC"/>
      <stop offset="100%" stop-color="#C7D2FE"/>
    </linearGradient>
    <linearGradient id="s_card_hi" x1="0" y1="0" x2="1" y2="1">
      <stop offset="0%" stop-color="#4F46E5"/>
      <stop offset="100%" stop-color="#4338CA"/>
    </linearGradient>
    <linearGradient id="s_line" x1="0" y1="0" x2="1" y2="0">
      <stop offset="0%" stop-color="#4F46E5"/>
      <stop offset="100%" stop-color="#818CF8"/>
    </linearGradient>
    <linearGradient id="s_area" x1="0" y1="0" x2="0" y2="1">
      <stop offset="0%" stop-color="#4F46E5" stop-opacity="0.18"/>
      <stop offset="100%" stop-color="#4F46E5" stop-opacity="0"/>
    </linearGradient>
  </defs>

  <rect width="320" height="200" fill="#F8F9FF"/>

  <!-- SIDEBAR -->
  <rect x="0" y="0" width="44" height="200" fill="url(#s_sidebar)"/>

  <!-- Logo mark in sidebar -->
  <rect x="12" y="10" width="20" height="20" rx="5" fill="url(#s_indigo)"/>
  <!-- Small S glyph -->
  <path d="M18 22 Q18 17 24 17 Q28 17 28 20 Q28 23 22 23 Q18 23 18 26 Q18 29 24 29 Q28 29 28 24" fill="none" stroke="#FFFFFF" stroke-width="1.5" stroke-linecap="round"/>

  <!-- Sidebar nav items -->
  <!-- Dashboard - active -->
  <rect x="8" y="38" width="28" height="20" rx="4" fill="#FFFFFF" opacity="0.12"/>
  <rect x="4" y="38" width="3" height="20" rx="1.5" fill="#A5B4FC"/>
  <!-- Grid icon -->
  <rect x="16" y="43" width="5" height="5" rx="1" fill="#FFFFFF"/>
  <rect x="23" y="43" width="5" height="5" rx="1" fill="#FFFFFF" opacity="0.7"/>
  <rect x="16" y="50" width="5" height="5" rx="1" fill="#FFFFFF" opacity="0.7"/>
  <rect x="23" y="50" width="5" height="5" rx="1" fill="#FFFFFF" opacity="0.5"/>

  <!-- Chart icon -->
  <rect x="12" y="66" width="20" height="18" rx="3" fill="transparent"/>
  <rect x="15" y="72" width="4" height="8" rx="1" fill="#FFFFFF" opacity="0.35"/>
  <rect x="21" y="69" width="4" height="11" rx="1" fill="#FFFFFF" opacity="0.35"/>
  <rect x="27" y="74" width="4" height="6" rx="1" fill="#FFFFFF" opacity="0.35"/>

  <!-- Users icon -->
  <rect x="12" y="92" width="20" height="18" rx="3" fill="transparent"/>
  <circle cx="22" cy="98" r="4" fill="none" stroke="#FFFFFF" stroke-width="1.2" opacity="0.35"/>
  <path d="M16 107 Q22 104 28 107" fill="none" stroke="#FFFFFF" stroke-width="1.2" opacity="0.35"/>

  <!-- Settings icon -->
  <rect x="12" y="118" width="20" height="18" rx="3" fill="transparent"/>
  <circle cx="22" cy="127" r="4.5" fill="none" stroke="#FFFFFF" stroke-width="1.2" opacity="0.35"/>
  <circle cx="22" cy="127" r="2" fill="#FFFFFF" opacity="0.25"/>

  <!-- User avatar at bottom -->
  <circle cx="22" cy="188" r="9" fill="#4F46E5"/>
  <text x="22" y="191" font-family="Helvetica, Arial, sans-serif" font-size="6.5" fill="#FFF" font-weight="700" text-anchor="middle">AK</text>

  <!-- HEADER BAR -->
  <rect x="44" y="0" width="276" height="28" fill="#FFFFFF"/>
  <rect x="44" y="28" width="276" height="1" fill="#E8ECFF"/>

  <text x="54" y="16" font-family="Helvetica, Arial, sans-serif" font-size="9" fill="#1E1B4B" font-weight="700">Dashboard</text>
  <text x="54" y="25" font-family="Helvetica, Arial, sans-serif" font-size="5" fill="#AAA" letter-spacing="0.3">April 2025 · Last 30 days</text>

  <!-- Search in header -->
  <rect x="188" y="7" width="88" height="14" rx="7" fill="#F1F3FF"/>
  <circle cx="199" cy="14" r="3.5" fill="none" stroke="#999" stroke-width="1"/>
  <line x1="201.5" y1="16.5" x2="204" y2="19" stroke="#999" stroke-width="1"/>
  <text x="208" y="17" font-family="Helvetica, Arial, sans-serif" font-size="5.5" fill="#BBB">Search...</text>

  <!-- Notification bell -->
  <circle cx="286" cy="14" r="7" fill="#F1F3FF"/>
  <path d="M283 14 Q283 11 286 11 Q289 11 289 14 L289 16 L283 16 Z" fill="none" stroke="#555" stroke-width="1"/>
  <rect x="285" y="16" width="2" height="1.5" rx="0.5" fill="#555"/>
  <circle cx="289" cy="9" r="2.5" fill="#EF4444"/>

  <!-- Avatar header -->
  <circle cx="306" cy="14" r="8" fill="url(#s_indigo)"/>
  <text x="306" y="17" font-family="Helvetica, Arial, sans-serif" font-size="6" fill="#FFF" font-weight="700" text-anchor="middle">AK</text>

  <!-- KPI CARDS ROW -->
  <rect x="44" y="29" width="276" height="44" fill="#F8F9FF"/>

  <!-- KPI 1 -->
  <rect x="50" y="34" width="60" height="34" rx="5" fill="#FFFFFF"/>
  <rect x="50" y="34" width="60" height="34" rx="5" fill="none" stroke="#E8ECFF" stroke-width="1"/>
  <text x="57" y="44" font-family="Helvetica, Arial, sans-serif" font-size="5" fill="#999" letter-spacing="0.5">REVENUE</text>
  <text x="57" y="56" font-family="Helvetica, Arial, sans-serif" font-size="12" fill="#1E1B4B" font-weight="900">$94K</text>
  <text x="57" y="63" font-family="Helvetica, Arial, sans-serif" font-size="5.5" fill="#16A34A">▲ 14.2%</text>
  <!-- Tiny sparkline -->
  <polyline points="88,60 91,57 94,55 97,52 100,54 103,50 106,48" fill="none" stroke="#4F46E5" stroke-width="1.2" opacity="0.5"/>

  <!-- KPI 2 - highlighted -->
  <rect x="116" y="34" width="60" height="34" rx="5" fill="url(#s_card_hi)"/>
  <text x="123" y="44" font-family="Helvetica, Arial, sans-serif" font-size="5" fill="#A5B4FC" letter-spacing="0.5">USERS</text>
  <text x="123" y="56" font-family="Helvetica, Arial, sans-serif" font-size="12" fill="#FFFFFF" font-weight="900">3,407</text>
  <text x="123" y="63" font-family="Helvetica, Arial, sans-serif" font-size="5.5" fill="#C7D2FE">▲ 9.8%</text>

  <!-- KPI 3 -->
  <rect x="182" y="34" width="60" height="34" rx="5" fill="#FFFFFF"/>
  <rect x="182" y="34" width="60" height="34" rx="5" fill="none" stroke="#E8ECFF" stroke-width="1"/>
  <text x="189" y="44" font-family="Helvetica, Arial, sans-serif" font-size="5" fill="#999" letter-spacing="0.5">MRR</text>
  <text x="189" y="56" font-family="Helvetica, Arial, sans-serif" font-size="12" fill="#1E1B4B" font-weight="900">$7.8K</text>
  <text x="189" y="63" font-family="Helvetica, Arial, sans-serif" font-size="5.5" fill="#16A34A">▲ 6.1%</text>

  <!-- KPI 4 -->
  <rect x="248" y="34" width="64" height="34" rx="5" fill="#FFFFFF"/>
  <rect x="248" y="34" width="64" height="34" rx="5" fill="none" stroke="#E8ECFF" stroke-width="1"/>
  <text x="255" y="44" font-family="Helvetica, Arial, sans-serif" font-size="5" fill="#999" letter-spacing="0.5">CHURN</text>
  <text x="255" y="56" font-family="Helvetica, Arial, sans-serif" font-size="12" fill="#1E1B4B" font-weight="900">0.9%</text>
  <text x="255" y="63" font-family="Helvetica, Arial, sans-serif" font-size="5.5" fill="#16A34A">▼ 0.4%</text>

  <!-- MAIN CHART + SIDE PANEL -->
  <rect x="44" y="73" width="276" height="86" fill="#F8F9FF"/>
  <rect x="44" y="73" width="276" height="1" fill="#E8ECFF"/>

  <!-- Revenue chart card -->
  <rect x="50" y="78" width="172" height="76" rx="5" fill="#FFFFFF"/>
  <rect x="50" y="78" width="172" height="76" rx="5" fill="none" stroke="#E8ECFF" stroke-width="1"/>

  <text x="60" y="90" font-family="Helvetica, Arial, sans-serif" font-size="7" fill="#1E1B4B" font-weight="700">Revenue Trend</text>
  <text x="196" y="90" font-family="Helvetica, Arial, sans-serif" font-size="5.5" fill="#4F46E5">Monthly ▾</text>

  <!-- Y labels -->
  <text x="57" y="102" font-family="Helvetica, Arial, sans-serif" font-size="4.5" fill="#CCC">$15K</text>
  <text x="57" y="115" font-family="Helvetica, Arial, sans-serif" font-size="4.5" fill="#CCC">$10K</text>
  <text x="57" y="128" font-family="Helvetica, Arial, sans-serif" font-size="4.5" fill="#CCC">$5K</text>
  <text x="57" y="141" font-family="Helvetica, Arial, sans-serif" font-size="4.5" fill="#CCC">$0</text>

  <!-- Chart gridlines -->
  <line x1="70" y1="99" x2="217" y2="99" stroke="#F0F2FF" stroke-width="1"/>
  <line x1="70" y1="112" x2="217" y2="112" stroke="#F0F2FF" stroke-width="1"/>
  <line x1="70" y1="125" x2="217" y2="125" stroke="#F0F2FF" stroke-width="1"/>
  <line x1="70" y1="138" x2="217" y2="138" stroke="#F0F2FF" stroke-width="1"/>

  <!-- Area fill -->
  <path d="M72,132 L84,127 L96,122 L108,116 L120,110 L132,105 L144,107 L156,102 L168,98 L180,94 L192,91 L204,88 L217,88 L217,138 L72,138 Z" fill="url(#s_area)"/>

  <!-- Line chart -->
  <polyline points="72,132 84,127 96,122 108,116 120,110 132,105 144,107 156,102 168,98 180,94 192,91 204,88 217,88" fill="none" stroke="url(#s_line)" stroke-width="2" stroke-linecap="round" stroke-linejoin="round"/>

  <!-- Data points -->
  <circle cx="204" cy="88" r="3" fill="#4F46E5"/>
  <circle cx="217" cy="88" r="2.5" fill="#4F46E5"/>
  <circle cx="204" cy="88" r="5" fill="#4F46E5" opacity="0.15"/>

  <!-- Tooltip -->
  <rect x="191" y="78" width="38" height="14" rx="3" fill="#1E1B4B"/>
  <text x="210" y="87" font-family="Helvetica, Arial, sans-serif" font-size="5.5" fill="#FFFFFF" font-weight="700" text-anchor="middle">$9,210</text>

  <!-- Month labels -->
  <text x="72" y="146" font-family="Helvetica, Arial, sans-serif" font-size="4.5" fill="#CCC" text-anchor="middle">Jun</text>
  <text x="96" y="146" font-family="Helvetica, Arial, sans-serif" font-size="4.5" fill="#CCC" text-anchor="middle">Jul</text>
  <text x="120" y="146" font-family="Helvetica, Arial, sans-serif" font-size="4.5" fill="#CCC" text-anchor="middle">Aug</text>
  <text x="144" y="146" font-family="Helvetica, Arial, sans-serif" font-size="4.5" fill="#CCC" text-anchor="middle">Sep</text>
  <text x="168" y="146" font-family="Helvetica, Arial, sans-serif" font-size="4.5" fill="#CCC" text-anchor="middle">Oct</text>
  <text x="193" y="146" font-family="Helvetica, Arial, sans-serif" font-size="4.5" fill="#CCC" text-anchor="middle">Nov</text>
  <text x="217" y="146" font-family="Helvetica, Arial, sans-serif" font-size="4.5" fill="#4F46E5" font-weight="700" text-anchor="middle">Dec</text>

  <!-- Right side: plans breakdown -->
  <rect x="228" y="78" width="84" height="76" rx="5" fill="#FFFFFF"/>
  <rect x="228" y="78" width="84" height="76" rx="5" fill="none" stroke="#E8ECFF" stroke-width="1"/>

  <text x="236" y="90" font-family="Helvetica, Arial, sans-serif" font-size="7" fill="#1E1B4B" font-weight="700">Plans</text>

  <!-- Donut chart -->
  <circle cx="270" cy="116" r="22" fill="none" stroke="#EEF0FF" stroke-width="8"/>
  <circle cx="270" cy="116" r="22" fill="none" stroke="#4F46E5" stroke-width="8" stroke-dasharray="87 51" stroke-dashoffset="18" stroke-linecap="round"/>
  <circle cx="270" cy="116" r="22" fill="none" stroke="#A5B4FC" stroke-width="8" stroke-dasharray="35 103" stroke-dashoffset="-69" stroke-linecap="round"/>
  <circle cx="270" cy="116" r="22" fill="none" stroke="#E0E7FF" stroke-width="8" stroke-dasharray="16 122" stroke-dashoffset="-104" stroke-linecap="round"/>
  <text x="270" y="113" font-family="Helvetica, Arial, sans-serif" font-size="9" fill="#1E1B4B" font-weight="900" text-anchor="middle">3.4K</text>
  <text x="270" y="121" font-family="Helvetica, Arial, sans-serif" font-size="5" fill="#AAA" text-anchor="middle">users</text>

  <!-- Legend -->
  <rect x="234" y="140" width="7" height="7" rx="1" fill="#4F46E5"/>
  <text x="244" y="146" font-family="Helvetica, Arial, sans-serif" font-size="5.5" fill="#555">Pro · 58%</text>
  <rect x="270" y="140" width="7" height="7" rx="1" fill="#A5B4FC"/>
  <text x="280" y="146" font-family="Helvetica, Arial, sans-serif" font-size="5.5" fill="#555">Starter</text>

  <!-- ACTIVITY FOOTER -->
  <rect x="44" y="159" width="276" height="41" fill="#FFFFFF"/>
  <rect x="44" y="159" width="276" height="1" fill="#E8ECFF"/>

  <text x="54" y="171" font-family="Helvetica, Arial, sans-serif" font-size="5.5" fill="#AAA" letter-spacing="1.5">RECENT ACTIVITY</text>

  <!-- Activity rows -->
  <circle cx="58" cy="181" r="3" fill="#16A34A"/>
  <text x="64" y="184" font-family="Helvetica, Arial, sans-serif" font-size="5.5" fill="#444">New signup · Pro Plan</text>
  <text x="148" y="184" font-family="Helvetica, Arial, sans-serif" font-size="5" fill="#BBB">2 min ago</text>

  <circle cx="58" cy="192" r="3" fill="#4F46E5"/>
  <text x="64" y="195" font-family="Helvetica, Arial, sans-serif" font-size="5.5" fill="#444">Upgrade · Starter → Pro</text>
  <text x="148" y="195" font-family="Helvetica, Arial, sans-serif" font-size="5" fill="#BBB">12 min ago</text>

  <!-- Quick action button -->
  <rect x="238" y="168" width="74" height="22" rx="5" fill="url(#s_indigo)"/>
  <text x="275" y="181" font-family="Helvetica, Arial, sans-serif" font-size="6.5" fill="#FFF" font-weight="700" text-anchor="middle">+ New Report</text>
</svg>
